<?xml version="1.0" encoding="utf-8"?>
<!-- Generator: Adobe Illustrator 19.0.0, SVG Export Plug-In . SVG Version: 6.00 Build 0)  -->
<svg version="1.1" id="Layer_1" xmlns="http://www.w3.org/2000/svg" xmlns:xlink="http://www.w3.org/1999/xlink" x="0px" y="0px"
	 viewBox="131 -131 512 512" style="enable-background:new 131 -131 512 512;" xml:space="preserve">
<g id="XMLID_2_">
	<path id="XMLID_7_" d="M387-131c46.5,0,89.4,11.2,128.5,34.4s69.8,54,93.1,93.1C631.9,35.6,643,78.5,643,125s-11.2,89.4-34.4,128.5
		c-23.2,39.1-54,69.8-93.1,93.1c-39.1,23.2-82,34.4-128.5,34.4s-89.4-11.2-128.5-34.4c-39.1-23.3-69.8-54-93.1-93.1
		S131,171.5,131,125s11.2-89.4,34.4-128.5s54-69.8,93.1-93.1S340.5-131,387-131z M478.2,43.1c0,0-1.9,0.9-2.8,2.8
		c-1.9,1.9-2.8,2.8-4.7,2.8c0,0,0.9-0.9,1.9-1.9c0.9-0.9,0.9-2.8,1.9-3.7c0.9-0.9,0.9-1.9,0.9-2.8c0.9-1.9,3.7-2.8,7.4-4.7
		c2.8-0.9,9.3-2.8,17.7-3.7c7.4-1.9,13-0.9,16.8,3.7c0,0,0.9-1.9,2.8-4.7c2.8-2.8,3.7-3.7,4.7-3.7c0.9,0,2.8-0.9,4.7-1.9
		c2.8-0.9,4.7-0.9,4.7-2.8l0.9-7.4c-2.8,0-4.7-0.9-5.6-2.8c-0.9-1.9-1.9-3.7-1.9-7.4c0,0-0.9,0.9-1.9,2.8c0-1.9-0.9-2.8-1.9-2.8
		c-0.9,0-1.9,0-3.7,0c-1.9,0-2.8,0.9-2.8,0c-1.9-0.9-3.7-1.9-4.7-2.8c-0.9-0.9-1.9-2.8-2.8-5.6c-0.9,0.9-1.9-0.9-1.9-1.9
		c0-0.9-1.9-1.9-2.8-3.7c-1.9-0.9-2.8-2.8-2.8-3.7c0,0-0.9-0.9-0.9-1.9c0-0.9-0.9-1.9-0.9-1.9c0-0.9-0.9-0.9-0.9-1.9
		c0-0.9-0.9-0.9-1.9-0.9c-0.9,0-1.9,0.9-2.8,1.9c-0.9,0.9-1.9,1.9-2.8,3.7c-0.9,0.9-0.9,1.9-1.9,1.9c-0.9,0-0.9-0.9-1.9-0.9
		c-0.9,0-0.9,0-1.9,0c0,0-0.9,0-1.9,0.9c-0.9,0.9-0.9,0.9-1.9,0.9c-0.9,0-1.9,0.9-2.8,0.9s-1.9,0-2.8,0.9c3.7-0.9,2.8-2.8,0-3.7
		c-1.9-0.9-3.7-0.9-5.6-0.9c1.9-0.9,2.8-1.9,2.8-3.7s-0.9-3.7-2.8-4.7h1.9c0-0.9-0.9-1.9-2.8-2.8s-3.7-1.9-5.6-2.8s-3.7-1.9-4.7-1.9
		c-1.9-0.9-5.6-1.9-11.2-2.8s-9.3-0.9-11.2,0c-0.9,0.9-1.9,2.8-1.9,3.7c0,0.9,0.9,2.8,0.9,4.7c0.9,1.9,0.9,3.7,0.9,3.7
		c0,0.9,0,2.8-1.9,4.7c-1.9,1.9-1.9,2.8-1.9,3.7c0,1.9,1.9,3.7,4.7,5.6c2.8,1.9,4.7,4.7,3.7,7.4c-0.9,1.9-2.8,3.7-5.6,5.6
		c-2.8,1.9-4.7,2.8-5.6,3.7c-0.9,1.9-0.9,3.7-0.9,6.5c0.9,2.8,1.9,3.7,3.7,5.6l0.9,0.9c0,0-0.9,0.9-0.9,1.9
		c-0.9,0.9-0.9,0.9-1.9,0.9c-0.9,0-0.9,0.9-1.9,0.9l-0.9,0.9c-2.8,0.9-4.7,0-6.5-1.9c-1.9-1.9-3.7-5.6-4.7-8.4
		c-1.9-5.6-3.7-9.3-5.6-10.2c-4.7-1.9-8.4-1.9-9.3,0c-0.9-2.8-5.6-5.6-14-8.4c-5.6-1.9-12.1-2.8-19.5-0.9c0.9,0,0.9-1.9,0-4.7
		c-1.9-3.7-3.7-4.7-6.5-3.7c0.9-0.9,0.9-3.7,0.9-5.6c0-2.8,0-3.7,0-4.7c0.9-2.8,1.9-5.6,3.7-7.4c0,0,0.9-0.9,2.8-2.8
		c0.9-1.9,2.8-2.8,2.8-4.7c0.9-0.9,0.9-1.9,0-1.9c7.4,0.9,13,0,16.8-3.7c0.9-0.9,2.8-2.8,3.7-5.6c1.9-2.8,2.8-4.7,3.7-5.6
		c1.9-0.9,3.7-1.9,4.7-1.9c0.9,0,2.8,0.9,4.7,1.9c1.9,0.9,3.7,1.9,4.7,1.9c2.8,0,4.7-0.9,5.6-3.7c0-2.8-0.9-4.7-2.8-6.5
		c2.8,0,2.8-1.9,0.9-5.6c-0.9-1.9-1.9-2.8-2.8-2.8c-2.8-0.9-5.6,0-9.3,1.9c-1.9,0.9-1.9,1.9,0.9,2.8c0,0-0.9,0.9-2.8,3.7
		c-1.9,2.8-3.7,4.7-5.6,5.6s-3.7,0.9-5.6-1.9c0,0-0.9-1.9-1.9-4.7c-0.9-2.8-1.9-4.7-2.8-4.7c-1.9,0-3.7,1.9-5.6,4.7
		c0.9-1.9-0.9-3.7-3.7-4.7c-2.8-1.9-5.6-2.8-8.4-2.8c4.7-2.8,3.7-5.6-2.8-9.3c-1.9-0.9-3.7-1.9-6.5-1.9c-2.8,0-5.6,0-6.5,0.9
		c-0.9,1.9-1.9,2.8-1.9,3.7c0,0.9,0,1.9,1.9,2.8c1.9,0.9,2.8,0.9,3.7,1.9c0.9,0,2.8,0.9,3.7,0.9c1.9,0,2.8,0.9,2.8,0.9
		c2.8,1.9,3.7,3.7,2.8,4.7c0,0-0.9,0.9-2.8,0.9s-2.8,0.9-3.7,1.9c-0.9,0-1.9,0.9-1.9,0.9c-0.9,0.9-0.9,2.8,0,4.7
		c0.9,1.9,0,3.7-0.9,4.7c-0.9-0.9-1.9-2.8-2.8-5.6c-0.9-2.8-1.9-4.7-2.8-5.6c1.9,1.9-0.9,2.8-8.4,1.9h-3.7c-0.9,0-2.8,0-5.6,0.9
		c-2.8,0-4.7,0.9-6.5,0c-1.9,0-3.7-0.9-4.7-2.8c-0.9-1.9-0.9-3.7,0-6.5c0-0.9,0.9-0.9,0.9-0.9c-0.9-0.9-1.9-1.9-3.7-2.8
		c-1.9-1.9-2.8-2.8-3.7-2.8c-10.2,3.7-20.5,7.4-31.7,14c0.9,0,2.8,0,3.7,0c0.9,0,2.8-0.9,4.7-1.9c1.9-0.9,2.8-1.9,3.7-1.9
		c7.4-2.8,12.1-3.7,14-2.8l1.9-1.9c2.8,3.7,5.6,6.5,6.5,8.4c-1.9-0.9-4.7-0.9-10.2,0c-4.7,0.9-6.5,2.8-7.4,3.7
		c1.9,2.8,1.9,4.7,1.9,5.6c-0.9-0.9-1.9-1.9-3.7-3.7c-1.9-1.9-3.7-2.8-4.7-3.7c-1.9-0.9-2.8-1.9-4.7-1.9c-3.7,0-5.6,0-7.4,0
		C248.6-44,222.6-18.9,203,11.8c1.9,1.9,2.8,2.8,3.7,2.8c0.9,0,1.9,0.9,1.9,2.8c0,1.9,0.9,2.8,0.9,3.7s1.9,0,3.7-0.9
		c1.9,1.9,2.8,3.7,0.9,6.5c0,0,4.7,2.8,14.9,9.3c4.7,3.7,6.5,6.5,7.4,7.4c0.9,2.8,0,4.7-3.7,5.6c0,0-0.9-1.9-2.8-2.8
		c-1.9-1.9-2.8-1.9-2.8-0.9c-0.9,0.9-0.9,2.8,0,6.5c0.9,2.8,1.9,4.7,3.7,3.7c-1.9,0-2.8,1.9-2.8,5.6s-0.9,7.4-0.9,12.1s0,6.5,0,7.4
		h0.9c-0.9,2.8,0,6.5,1.9,11.2s4.7,7.4,7.4,6.5c-2.8,0.9-0.9,5.6,6.5,14c0.9,1.9,1.9,2.8,2.8,2.8c0.9,0,1.9,0.9,3.7,2.8
		c1.9,0.9,3.7,2.8,4.7,3.7c0.9,0.9,2.8,1.9,3.7,3.7c0.9,0.9,1.9,3.7,3.7,7.4c1.9,3.7,2.8,6.5,4.7,7.4c0,0.9,0.9,3.7,2.8,6.5
		c2.8,2.8,3.7,5.6,3.7,7.4h-0.9h-0.9c0.9,1.9,2.8,2.8,5.6,4.7c2.8,1.9,4.7,2.8,5.6,4.7c0,0.9,0,1.9,0.9,3.7c0,1.9,0.9,2.8,0.9,3.7
		s0.9,0.9,2.8,0.9c0-4.7-1.9-11.2-8.4-20.5c-3.7-5.6-5.6-8.4-5.6-9.3c-0.9-0.9-0.9-2.8-1.9-5.6c-0.9-2.8-0.9-3.7-1.9-4.7
		c0,0,0.9,0,1.9,0.9c0.9,0,1.9,0.9,2.8,0.9c0.9,0,1.9,0.9,2.8,0.9s0.9,0.9,0.9,0.9c-0.9,1.9,0,3.7,0.9,5.6c0.9,2.8,2.8,4.7,3.7,6.5
		c1.9,1.9,3.7,3.7,5.6,6.5c1.9,2.8,3.7,3.7,3.7,4.7c0.9,0.9,2.8,3.7,4.7,6.5c1.9,2.8,1.9,4.7,0,4.7c1.9,0,4.7,0.9,6.5,3.7
		c2.8,1.9,4.7,4.7,5.6,6.5c0.9,1.9,1.9,4.7,2.8,8.4c0.9,3.7,0.9,6.5,1.9,8.4c0,1.9,0.9,2.8,2.8,4.7c1.9,1.9,2.8,2.8,3.7,2.8l5.6,2.8
		l4.7,2.8c0.9,0,2.8,1.9,6.5,3.7c2.8,1.9,5.6,2.8,7.4,3.7c1.9,0.9,3.7,0.9,5.6,0.9c0.9,0,2.8,0,4.7-0.9s3.7-0.9,4.7-0.9
		c3.7,0,6.5,0.9,9.3,4.7c2.8,3.7,5.6,6.5,7.4,7.4c8.4,4.7,14,5.6,18.6,3.7c0,0,0,0.9,0,2.8c0.9,1.9,1.9,2.8,2.8,5.6
		c0.9,2.8,1.9,3.7,2.8,4.7c0.9,0.9,0.9,1.9,1.9,2.8c0.9,0.9,2.8,2.8,5.6,4.7c2.8,1.9,4.7,3.7,5.6,4.7c0.9-0.9,1.9-1.9,2.8-2.8
		c-0.9,1.9,0,3.7,2.8,6.5c1.9,2.8,4.7,3.7,5.6,3.7c2.8-0.9,4.7-4.7,4.7-10.2c-6.5,3.7-12.1,0.9-16.8-5.6c0,0,0-0.9-0.9-1.9
		c-0.9-0.9-0.9-1.9-0.9-2.8s-0.9-1.9-0.9-2.8s0-1.9,0-2.8s0.9-0.9,1.9-0.9c1.9,0,2.8,0,3.7-0.9c0-0.9,0-1.9-0.9-3.7
		c-0.9-1.9-0.9-3.7-0.9-4.7c0-1.9-1.9-3.7-3.7-6.5c-1.9-2.8-3.7-4.7-3.7-4.7c-0.9,1.9-2.8,2.8-5.6,2.8s-4.7-0.9-5.6-2.8
		c0,0,0,0.9-0.9,1.9c-0.9,0.9-0.9,1.9-0.9,1.9c-2.8,0-4.7,0-4.7,0c0-0.9,0.9-2.8,0.9-5.6s0.9-5.6,0.9-7.4c0-0.9,0.9-1.9,1.9-3.7
		c0.9-1.9,1.9-3.7,2.8-4.7c0.9-1.9,0.9-2.8,0.9-3.7s0-2.8-1.9-2.8c-0.9-0.9-2.8-0.9-5.6-0.9c-4.7,0-7.4,2.8-8.4,6.5
		c0,0.9-0.9,1.9-0.9,3.7c0,1.9-0.9,2.8-1.9,3.7c-0.9,0.9-1.9,1.9-2.8,2.8c-1.9,0.9-4.7,0.9-8.4,0.9c-3.7,0-6.5-0.9-8.4-1.9
		c-2.8-1.9-5.6-4.7-7.4-9.3c-1.9-4.7-2.8-8.4-2.8-12.1c0-1.9,0-5.6,0.9-8.4c0.9-3.7,0.9-6.5,0.9-8.4s-0.9-4.7-1.9-8.4
		c0.9,0,1.9-1.9,2.8-2.8c0.9-1.9,2.8-2.8,3.7-3.7c0,0,0.9,0,1.9-0.9c0.9,0,0.9,0,1.9,0c0,0,0.9,0,0.9-0.9c0,0,0.9-0.9,0.9-1.9
		l-0.9-0.9c-0.9-7.4-1.9-7.4-1.9-7.4c1.9,0.9,4.7,0.9,9.3-0.9c4.7-0.9,7.4-0.9,9.3,0.9c3.7,2.8,5.6,1.9,7.4-0.9c0,0,0-0.9-0.9-2.8
		s-0.9-3.7,0-4.7c0.9,5.6,4.7,7.4,9.3,2.8c0.9,0.9,2.8,0.9,5.6,1.9c2.8,0,4.7,0.9,5.6,1.9c0.9,0,1.9,0.9,2.8,1.9
		c0.9,0.9,1.9,0.9,1.9,1.9c0,0,0.9,0,1.9,0c0.9,0,1.9-0.9,2.8-1.9c1.9,2.8,3.7,5.6,3.7,8.4c2.8,9.3,4.7,14,6.5,14.9
		c1.9,0.9,2.8,0.9,3.7,0.9s0.9-0.9,1.9-2.8c0.9-1.9,0-3.7,0-4.7s0-2.8-0.9-3.7v-2.8v-5.6v-2.8c-3.7-0.9-5.6-1.9-6.5-3.7
		c-0.9-1.9-0.9-3.7,0.9-6.5s2.8-3.7,4.7-6.5c0,0,0.9-0.9,2.8-0.9c1.9-0.9,3.7-0.9,5.6-1.9c1.9-0.9,3.7-1.9,3.7-2.8
		c4.7-4.7,6.5-8.4,4.7-12.1c1.9,0,2.8-0.9,3.7-2.8c0,0-0.9,0-1.9-0.9c-0.9-0.9-1.9-0.9-2.8-1.9c-0.9,0-0.9-0.9-1.9-0.9
		c1.9-0.9,1.9-2.8,0.9-5.6c0.9-0.9,1.9-1.9,2.8-3.7c0.9-1.9,0.9-2.8,2.8-3.7c1.9,2.8,4.7,2.8,7.4,0.9c1.9-1.9,1.9-3.7,0-5.6
		c0.9-1.9,3.7-2.8,6.5-3.7s5.6-1.9,6.5-2.8c1.9,0,2.8,0,2.8-0.9s0-1.9,0-3.7c0-1.9,0-2.8,0.9-3.7s2.8-1.9,4.7-2.8
		c2.8-0.9,3.7-1.9,4.7-1.9L485,63c0.9-0.9,0.9-0.9,0-0.9c3.7,0,7.4-0.9,10.2-3.7c1.9-2.8,1.9-4.7-1.9-6.5c0.9-0.9,0-2.8-0.9-2.8
		c-0.9-0.9-2.8-0.9-4.7-1.9c0.9,0,1.9,0,3.7,0s2.8,0,3.7-0.9c3.7-1.9,2.8-3.7-2.8-5.6C488.5,37.5,483.8,38.4,478.2,43.1z
		 M424.2,335.4c45.6-8.4,84.7-28.9,117.3-63.3c-0.9-0.9-1.9-0.9-3.7-1.9c-1.9,0-3.7-0.9-3.7-0.9c-3.7-1.9-6.5-2.8-8.4-2.8
		c0-1.9,0-2.8-0.9-4.7c-0.9-0.9-1.9-2.8-2.8-2.8c-0.9-0.9-2.8-1.9-3.7-2.8c-1.9-0.9-2.8-1.9-3.7-2.8c0,0-0.9-0.9-2.8-1.9
		c-0.9-0.9-1.9-1.9-2.8-1.9s-0.9-0.9-2.8-1.9c-0.9-0.9-1.9-0.9-2.8-0.9s-1.9,0-3.7,0h-0.9c-0.9,0-0.9,0.9-1.9,0.9
		c-0.9,0-0.9,0.9-1.9,0.9s-0.9,0.9-0.9,0.9v0.9c-4.7-3.7-8.4-6.5-12.1-7.4c-0.9,0-2.8-0.9-3.7-1.9c-0.9-0.9-2.8-1.9-3.7-2.8
		c-0.9-0.9-1.9-0.9-3.7-0.9c-0.9,0-2.8,0.9-3.7,2.8c-0.9,0.9-1.9,2.8-1.9,4.7s0,3.7-0.9,4.7c-1.9-0.9-1.9-2.8,0-5.6
		c1.9-2.8,1.9-4.7,0.9-6.5c-0.9-0.9-1.9-1.9-3.7-1.9s-2.8,0.9-3.7,1.9c-0.9,0.9-1.9,1.9-3.7,2.8c-1.9,0.9-2.8,1.9-2.8,1.9
		s-0.9,0.9-2.8,1.9c-1.9,0.9-2.8,1.9-2.8,2.8c-0.9,0.9-0.9,1.9-1.9,3.7c-0.9,4.7-0.9,5.6-1.9,6.5c0-0.9-1.9-1.9-3.7-1.9
		c-1.9-0.9-2.8-0.9-2.8-1.9c0,1.9,0.9,6.5,0.9,12.1s0.9,10.2,1.9,13c1.9,6.5,0,12.1-3.7,15.8c-5.6,5.6-9.3,10.2-9.3,13
		c-0.9,4.7,0,7.4,3.7,8.4c0,1.9-0.9,3.7-2.8,6.5s-2.8,5.6-2.8,7.4C423.3,330.7,423.3,332.6,424.2,335.4z"/>
</g>
</svg>
